<svg xmlns="http://www.w3.org/2000/svg" viewBox="0 0 512 512" width="512" height="512">
  <defs>
    <linearGradient id="grad1" x1="0%" y1="0%" x2="100%" y2="100%">
      <stop offset="0%" style="stop-color:#3b82f6;stop-opacity:1" />
      <stop offset="100%" style="stop-color:#2563eb;stop-opacity:1" />
    </linearGradient>
  </defs>
  
  <!-- Background circle -->
  <circle cx="256" cy="256" r="240" fill="url(#grad1)" stroke="#1e40af" stroke-width="8"/>
  
  <!-- Book icon representing education -->
  <g transform="translate(256,256)">
    <!-- Open book -->
    <path d="M-80,-60 L-80,80 L-10,70 L-10,-50 Z" fill="#ffffff" opacity="0.9"/>
    <path d="M80,-60 L80,80 L10,70 L10,-50 Z" fill="#ffffff" opacity="0.9"/>
    <path d="M-10,-50 L-10,70 L10,70 L10,-50 Z" fill="#e5e7eb"/>
    
    <!-- Pages lines -->
    <line x1="-60" y1="-30" x2="-30" y2="-35" stroke="#3b82f6" stroke-width="2"/>
    <line x1="-60" y1="-10" x2="-30" y2="-15" stroke="#3b82f6" stroke-width="2"/>
    <line x1="-60" y1="10" x2="-30" y2="5" stroke="#3b82f6" stroke-width="2"/>
    <line x1="-60" y1="30" x2="-30" y2="25" stroke="#3b82f6" stroke-width="2"/>
    
    <line x1="60" y1="-30" x2="30" y2="-35" stroke="#3b82f6" stroke-width="2"/>
    <line x1="60" y1="-10" x2="30" y2="-15" stroke="#3b82f6" stroke-width="2"/>
    <line x1="60" y1="10" x2="30" y2="5" stroke="#3b82f6" stroke-width="2"/>
    <line x1="60" y1="30" x2="30" y2="25" stroke="#3b82f6" stroke-width="2"/>
    
    <!-- Crescent moon symbol -->
    <path d="M-20,-100 C-35,-85 -35,-65 -20,-50 C-5,-65 -5,-85 -20,-100 Z" fill="#fbbf24"/>
    
    <!-- Star -->
    <path d="M20,-90 L25,-75 L40,-75 L28,-65 L33,-50 L20,-60 L7,-50 L12,-65 L0,-75 L15,-75 Z" fill="#fbbf24"/>
  </g>
</svg>